<svg width="456" height="394" viewBox="0 0 456 394" fill="none" xmlns="http://www.w3.org/2000/svg">
<path fill-rule="evenodd" clip-rule="evenodd" d="M160.232 393.361L342.118 393.361L455.639 196.737L364.696 39.2188L328.284 102.286L382.848 196.793L305.622 330.526L196.504 330.535L160.232 393.361Z" fill="#93B1A6"/>
<path fill-rule="evenodd" clip-rule="evenodd" d="M91.0681 39.9599L0.618164 196.624L114.139 393.248H114.694L151.045 330.286L150.612 330.286L73.4091 196.567L127.453 102.98L91.0681 39.9599ZM150.599 62.8973L150.635 62.8348L305.063 62.8215L305.265 63.1698L341.458 0.480728L341.181 0L114.285 2.21304e-05L150.599 62.8973Z" fill="#93B1A6"/>
<path d="M183.287 119.069L272.674 119.069L317.368 196.481L272.674 273.893L183.287 273.893L138.593 196.481L183.287 119.069Z" fill="#5C8374"/>
</svg>
